<svg version="1.1" xmlns="http://www.w3.org/2000/svg" xmlns:xlink="http://www.w3.org/1999/xlink">
    <symbol id="home" viewBox="0 0 25 25">
        <g clip-path="url(#clip0_143:185)">
            <path d="M24.375 10.823C24.3743 10.8225 24.3737 10.8217 24.3731 10.8211L14.1751 0.623468C13.7404 0.188591 13.1625 -0.0507812 12.5477 -0.0507812C11.933 -0.0507812 11.3551 0.188591 10.9202 0.623468L0.72749 10.816C0.724057 10.8194 0.720433 10.823 0.71719 10.8265C-0.175451 11.7243 -0.173925 13.1809 0.721577 14.0764C1.1307 14.4857 1.67087 14.7226 2.2486 14.7476C2.27225 14.7499 2.29591 14.751 2.31975 14.751H2.72601V22.2557C2.72601 23.741 3.93451 24.9493 5.41977 24.9493H9.40957C9.81412 24.9493 10.142 24.6212 10.142 24.2168V18.333C10.142 17.6554 10.6934 17.1041 11.3711 17.1041H13.7244C14.4021 17.1041 14.9533 17.6554 14.9533 18.333V24.2168C14.9533 24.6212 15.2812 24.9493 15.6857 24.9493H19.6755C21.161 24.9493 22.3693 23.741 22.3693 22.2557V14.751H22.7462C23.3607 14.751 23.9386 14.5117 24.3737 14.0766C25.2702 13.1798 25.2705 11.7204 24.375 10.823ZM23.3378 13.0409C23.1797 13.199 22.9695 13.2862 22.7462 13.2862H21.6368C21.2323 13.2862 20.9044 13.6141 20.9044 14.0186V22.2557C20.9044 22.9332 20.3532 23.4844 19.6755 23.4844H16.4181V18.333C16.4181 16.8478 15.2098 15.6393 13.7244 15.6393H11.3711C9.88564 15.6393 8.67714 16.8478 8.67714 18.333V23.4844H5.41977C4.74228 23.4844 4.19086 22.9332 4.19086 22.2557V14.0186C4.19086 13.6141 3.86299 13.2862 3.45844 13.2862H2.36819C2.35675 13.2854 2.3455 13.2849 2.33386 13.2847C2.11566 13.2808 1.911 13.1943 1.75765 13.0407C1.43149 12.7146 1.43149 12.1837 1.75765 11.8574C1.75784 11.8574 1.75784 11.8572 1.75803 11.857L1.7586 11.8564L11.9563 1.65916C12.1142 1.50104 12.3242 1.41407 12.5477 1.41407C12.7711 1.41407 12.9811 1.50104 13.1392 1.65916L23.3346 11.8543C23.3361 11.8559 23.3378 11.8574 23.3393 11.8589C23.6638 12.1856 23.6632 12.7153 23.3378 13.0409Z" fill="#B5C8D7" />
        </g>
        <defs>
            <clipPath id="clip0_143:185">
                <rect width="25" height="25" fill="white" />
            </clipPath>
        </defs>
    </symbol>
    <symbol id="settings" viewBox="0 0 25 25">
        <g clip-path="url(#clip0_143:187)">
            <path d="M0.801282 4.54674H4.99306C5.3485 5.89781 6.58024 6.89717 8.04124 6.89717C9.50224 6.89717 10.734 5.89781 11.0894 4.54674H24.1987C24.6412 4.54674 25 4.18798 25 3.74546C25 3.30294 24.6412 2.94418 24.1987 2.94418H11.0893C10.7339 1.59311 9.50214 0.59375 8.04113 0.59375C6.58013 0.59375 5.3484 1.59311 4.99295 2.94418H0.801282C0.358761 2.94418 0 3.30294 0 3.74546C0 4.18798 0.358761 4.54674 0.801282 4.54674ZM8.04124 2.19631C8.89541 2.19631 9.59038 2.89129 9.59038 3.74546C9.59038 4.59963 8.89541 5.2946 8.04124 5.2946C7.18707 5.2946 6.49209 4.59963 6.49209 3.74546C6.49209 2.89129 7.18707 2.19631 8.04124 2.19631Z" fill="#B5C8D7" />
            <path d="M24.1987 11.6981H18.8579C18.5025 10.347 17.2707 9.34766 15.8097 9.34766C14.3487 9.34766 13.117 10.347 12.7615 11.6981H0.801282C0.358761 11.6981 0 12.0568 0 12.4994C0 12.9419 0.358761 13.3006 0.801282 13.3006H12.7616C13.1171 14.6516 14.3488 15.6511 15.8098 15.6511C17.2708 15.6511 18.5026 14.6516 18.858 13.3006H24.1988C24.6413 13.3006 25.0001 12.9419 25.0001 12.4994C25.0001 12.0568 24.6412 11.6981 24.1987 11.6981ZM15.8098 14.0485C14.9557 14.0485 14.2607 13.3535 14.2607 12.4994C14.2607 11.6452 14.9557 10.9502 15.8098 10.9502C16.664 10.9502 17.359 11.6452 17.359 12.4994C17.359 13.3535 16.664 14.0485 15.8098 14.0485Z" fill="#B5C8D7" />
            <path d="M24.1987 20.452H11.0893C10.7339 19.101 9.50214 18.1016 8.04113 18.1016C6.58013 18.1016 5.3484 19.101 4.99295 20.452H0.801282C0.358761 20.452 0 20.8107 0 21.2533C0 21.6958 0.358761 22.0546 0.801282 22.0546H4.99306C5.3485 23.4056 6.58024 24.405 8.04124 24.405C9.50224 24.405 10.734 23.4056 11.0894 22.0546H24.1987C24.6412 22.0546 25 21.6958 25 21.2533C25 20.8107 24.6412 20.452 24.1987 20.452ZM8.04124 22.8024C7.18707 22.8024 6.49209 22.1074 6.49209 21.2533C6.49209 20.3991 7.18707 19.7041 8.04124 19.7041C8.89541 19.7041 9.59038 20.3991 9.59038 21.2533C9.59038 22.1074 8.89541 22.8024 8.04124 22.8024Z" fill="#B5C8D7" />
        </g>
        <defs>
            <clipPath id="clip0_143:187">
                <rect width="25" height="25" fill="white" />
            </clipPath>
        </defs>
    </symbol>
    <symbol id="file" viewBox="0 0 24 24">
        <path d="M14 2H6C5.46957 2 4.96086 2.21071 4.58579 2.58579C4.21071 2.96086 4 3.46957 4 4V20C4 20.5304 4.21071 21.0391 4.58579 21.4142C4.96086 21.7893 5.46957 22 6 22H18C18.5304 22 19.0391 21.7893 19.4142 21.4142C19.7893 21.0391 20 20.5304 20 20V8L14 2Z" stroke-linecap="round" stroke-linejoin="round" />
        <path d="M14 2V8H20" stroke-linecap="round" stroke-linejoin="round" />
        <path d="M16 13H8" stroke-linecap="round" stroke-linejoin="round" />
        <path d="M16 17H8" stroke-linecap="round" stroke-linejoin="round" />
        <path d="M10 9H9H8" stroke-linecap="round" stroke-linejoin="round" />
    </symbol>
    <symbol id="portfolio" viewBox="0 0 50 50">
        <path d="M47.0703 1.95312H31.44C30.5275 1.95312 29.6543 2.38724 29.1039 3.1147L24.5144 9.17969H2.92969C1.31416 9.17969 0 10.4939 0 12.1094V43.1641C0 45.8565 2.1904 48.0469 4.88281 48.0469H45.1172C47.8096 48.0469 50 45.8565 50 43.1641V4.88281C50 3.26729 48.6858 1.95312 47.0703 1.95312ZM48.0469 43.1641C48.0469 44.7796 46.7327 46.0938 45.1172 46.0938H8.78677C9.40094 45.277 9.76562 44.2623 9.76562 43.1641V17.3828C9.76562 16.8442 10.2036 16.4062 10.7422 16.4062H32.8529C33.392 16.4062 31.8764 15.9691 31.8764 15.4297C31.8764 14.8903 33.392 14.4531 32.8529 14.4531H10.7422C9.12666 14.4531 7.8125 15.7673 7.8125 17.3828V43.1641C7.8125 44.7796 6.49834 46.0938 4.88281 46.0938C3.26729 46.0938 1.95312 44.7796 1.95312 43.1641V12.1094C1.95312 11.5707 2.39105 11.1328 2.92969 11.1328H25C25.3059 11.1328 25.5943 10.9894 25.7786 10.7456L30.6614 4.29344C30.8449 4.05121 31.1359 3.90625 31.44 3.90625H47.0703C47.6089 3.90625 48.0469 4.34456 48.0469 4.88281V14.4531H32.8529C32.3135 14.4531 31.8764 14.8903 31.8764 15.4297C31.8764 15.9691 32.3135 16.4062 32.8529 16.4062H48.0469V43.1641Z" fill="#B5C8D7" />
        <path d="M18.3018 31.9365C18.3018 35.068 19.6613 37.8878 21.8208 39.8371C21.8643 39.8848 21.9131 39.9276 21.9658 39.9661C23.8361 41.5942 26.2783 42.5811 28.9463 42.5811C31.6143 42.5811 34.0557 41.5946 35.926 39.9668C35.9798 39.9279 36.0294 39.8841 36.0737 39.836C38.232 37.8863 39.5908 35.0672 39.5908 31.9365C39.5908 26.0672 34.816 21.292 28.9463 21.292C23.077 21.292 18.3018 26.0672 18.3018 31.9365ZM23.6767 38.843C24.5193 36.7041 26.6048 35.2568 28.9463 35.2568C31.2881 35.2568 33.3732 36.7041 34.2163 38.843C32.7534 39.9623 30.9265 40.6279 28.9463 40.6279C26.9665 40.6279 25.1396 39.9619 23.6767 38.843ZM26.8909 31.2484V30.4904C26.8909 29.3566 27.8129 28.4346 28.9463 28.4346C30.08 28.4346 31.002 29.3566 31.002 30.4904V31.2484C31.002 32.3817 30.08 33.3037 28.9463 33.3037C27.8129 33.3037 26.8909 32.3817 26.8909 31.2484ZM37.6377 31.9365C37.6377 34.0045 36.9118 35.9053 35.7014 37.3992C34.8816 35.8302 33.5403 34.6041 31.9343 33.9171C32.5683 33.208 32.9552 32.2726 32.9552 31.2484V30.4904C32.9552 28.2801 31.1569 26.4815 28.9463 26.4815C26.7361 26.4815 24.9378 28.2801 24.9378 30.4904V31.2484C24.9378 32.2726 25.3242 33.208 25.9586 33.9171C24.3526 34.6041 23.011 35.8306 22.1916 37.3992C20.9812 35.9057 20.2549 34.0045 20.2549 31.9365C20.2549 27.1441 24.1539 23.2451 28.9463 23.2451C33.7391 23.2451 37.6377 27.1441 37.6377 31.9365Z" fill="#B5C8D7" />
    </symbol>
    <symbol id="gauge" viewBox="0 0 50 50">
        <g clip-path="url(#clip0_120:205)">
            <path d="M42.6786 7.32217C37.9568 2.60039 31.6788 0 25.0009 0C18.323 0 12.0449 2.60039 7.32314 7.32217C2.60137 12.0439 0.000976562 18.3221 0.000976562 25C0.000976562 31.6779 2.60137 37.9561 7.32314 42.6778C12.0449 47.3996 18.323 50 25.0009 50C31.6787 50 37.9568 47.3996 42.6786 42.6777C47.4004 37.9561 50.0008 31.6779 50.0008 25C50.0008 18.3221 47.4004 12.0439 42.6786 7.32217ZM41.2976 41.2967C36.9446 45.6496 31.157 48.0469 25.0009 48.0469C18.8447 48.0469 13.0571 45.6496 8.7042 41.2967C6.09883 38.6913 4.25049 35.6119 3.15596 32.3338H29.3844C29.9237 32.3338 28.4078 31.8966 28.4078 31.3572C28.4078 30.8179 29.9237 30.3807 29.3844 30.3807H2.59766C0.800684 22.8442 2.83555 14.572 8.7043 8.70322C13.0571 4.35039 18.8447 1.95312 25.0009 1.95312C31.157 1.95312 36.9446 4.35039 41.2975 8.70322C47.1662 14.572 49.201 22.8442 47.404 30.3807H29.3844C28.845 30.3807 28.4078 30.8179 28.4078 31.3572C28.4078 31.8966 28.845 32.3338 29.3844 32.3338H46.8458C45.7512 35.6119 43.9028 38.6914 41.2976 41.2967Z" fill="#B5C8D7" />
            <path d="M24.0222 11.1106C24.0222 11.65 24.4594 12.0872 24.9987 12.0872C25.5381 12.0872 25.9753 11.65 25.9753 11.1106V6.72461C27.6941 6.81797 29.3484 7.15654 30.9049 7.70498L30.2584 9.26729C30.0521 9.76572 30.289 10.3368 30.7874 10.5431C30.9096 10.5937 31.036 10.6175 31.1604 10.6175C31.5438 10.6175 31.9075 10.3903 32.0632 10.0141L32.7089 8.45361C34.1834 9.16436 35.545 10.073 36.7606 11.1438L33.6705 14.2316C33.289 14.6129 33.2888 15.2312 33.67 15.6127C33.8607 15.8036 34.1107 15.899 34.3608 15.899C34.6106 15.899 34.8604 15.8037 35.0511 15.6133L38.1546 12.512C39.3191 13.7874 40.3015 15.2319 41.0594 16.8042L39.4989 17.4499C39.0006 17.6562 38.7638 18.2273 38.9699 18.7257C39.1256 19.102 39.4893 19.3291 39.8727 19.3291C39.9971 19.3291 40.1235 19.3052 40.2457 19.2547L41.808 18.6082C42.3564 20.1647 42.6951 21.819 42.7884 23.5378H38.4024C37.8631 23.5378 37.4259 23.975 37.4259 24.5144C37.4259 25.0537 37.8631 25.4909 38.4024 25.4909H43.7922C43.8197 25.4909 43.8434 25.4895 43.8648 25.4872C44.3701 25.4499 44.7687 25.0291 44.7687 24.5143C44.7687 13.613 35.8999 4.74414 24.9987 4.74414C14.099 4.74414 5.23145 13.613 5.23145 24.5143C5.23145 25.0536 5.66865 25.4908 6.20801 25.4908H11.5978C12.1371 25.4908 12.5743 25.0536 12.5743 24.5143C12.5743 23.9749 12.1371 23.5377 11.5978 23.5377H7.21172C7.30498 21.8188 7.64355 20.1645 8.19199 18.608L9.75439 19.2546C9.87656 19.3052 10.003 19.329 10.1274 19.329C10.5107 19.329 10.8745 19.1019 11.0302 18.7256C11.2364 18.2271 10.9996 17.6561 10.5012 17.4498L8.94053 16.804C9.69824 15.2316 10.6805 13.7872 11.8449 12.5118L14.9461 15.613C15.1368 15.8037 15.3867 15.899 15.6366 15.899C15.8865 15.899 16.1365 15.8037 16.3271 15.613C16.7085 15.2316 16.7085 14.6133 16.3271 14.2318L13.2388 11.1435C14.4542 10.0729 15.8154 9.16426 17.2896 8.45361L17.9373 10.0149C18.0933 10.3907 18.4566 10.6175 18.8396 10.6175C18.9644 10.6175 19.0912 10.5935 19.2136 10.5427C19.7117 10.336 19.948 9.76465 19.7413 9.26641L19.0935 7.70488C20.6496 7.15645 22.3036 6.81787 24.0221 6.72451V11.1106H24.0222Z" fill="#B5C8D7" />
            <path d="M28.4072 22.2786C28.4046 22.2722 28.4019 22.2656 28.3991 22.2592L25.8967 16.4043C25.743 16.0447 25.3897 15.8115 24.9986 15.8115H24.9985C24.6075 15.8116 24.2541 16.045 24.1006 16.4046L21.6009 22.2595C21.5981 22.2658 21.5931 22.2782 21.5905 22.2846C21.3662 22.8424 21.1543 23.3693 21.1543 24.0492C21.1543 26.1706 22.8789 27.8965 24.9987 27.8965C27.1201 27.8965 28.846 26.1706 28.846 24.0492C28.8459 23.3694 28.634 22.8426 28.4072 22.2786ZM24.9987 25.9434C23.9559 25.9434 23.1074 25.0937 23.1074 24.0493C23.1074 23.7628 23.2073 23.4993 23.4013 23.017L24.9992 19.2741L26.5991 23.0171C26.7922 23.4972 26.8929 23.7616 26.8929 24.0492C26.8928 25.0937 26.0431 25.9434 24.9987 25.9434Z" fill="#B5C8D7" />
            <path d="M26.6346 38.3342H24.9416L26.2716 35.6597C26.5117 35.1768 26.3149 34.5906 25.8319 34.3504C25.349 34.1103 24.7628 34.3071 24.5226 34.79L22.4908 38.876C22.1743 39.5118 22.6551 40.291 23.3679 40.2874H25.0582L23.7282 42.9619C23.4881 43.4448 23.6848 44.031 24.1678 44.2712C24.3075 44.3406 24.4558 44.3735 24.6019 44.3735C24.9609 44.3735 25.3064 44.1748 25.4771 43.8315L27.509 39.7457C27.5272 39.709 27.5426 39.6703 27.5561 39.6316C27.7729 39.0091 27.2944 38.3342 26.6346 38.3342Z" fill="#B5C8D7" />
            <path d="M19.0747 37.6416H15.6089C15.0695 37.6416 14.6323 38.0788 14.6323 38.6182C14.6323 39.1575 15.0695 39.5947 15.6089 39.5947H19.0747C19.6141 39.5947 20.0513 39.1575 20.0513 38.6182C20.0513 38.0788 19.6141 37.6416 19.0747 37.6416Z" fill="#B5C8D7" />
            <path d="M34.3887 37.6416H30.9229C30.3835 37.6416 29.9463 38.0788 29.9463 38.6182C29.9463 39.1575 30.3835 39.5947 30.9229 39.5947H34.3887C34.928 39.5947 35.3652 39.1575 35.3652 38.6182C35.3652 38.0788 34.928 37.6416 34.3887 37.6416Z" fill="#B5C8D7" />
        </g>
        <defs>
            <clipPath id="clip0_120:205">
                <rect width="50" height="50" fill="white" />
            </clipPath>
        </defs>
    </symbol>
    <symbol id="payment" viewBox="0 0 50 50">
        <path d="M29.541 31.8359C30.0801 31.8359 30.5176 32.2734 30.5176 32.8125C30.5176 33.3516 30.0801 33.7891 29.541 33.7891C29.002 33.7891 28.5645 33.3516 28.5645 32.8125C28.5645 32.2734 29.002 31.8359 29.541 31.8359Z" fill="#B5C8D7" />
        <path d="M2.92969 0H24.4141C26.0295 0 27.3438 1.31426 27.3438 2.92969V10.3516H47.0703C48.6857 10.3516 50 11.6658 50 13.2812V34.7656C50 36.3811 48.6857 37.6953 47.0703 37.6953H27.3438V47.0703C27.3438 48.6857 26.0295 50 24.4141 50H2.92969C1.31426 50 0 48.6857 0 47.0703V2.92969C0 1.31426 1.31426 0 2.92969 0ZM48.0469 13.2812C48.0469 12.7428 47.6088 12.3047 47.0703 12.3047H15.8203C15.2818 12.3047 14.8438 12.7428 14.8438 13.2812V16.2109H48.0469V13.2812ZM48.0469 18.1641H14.8438V22.0703H48.0469V18.1641ZM47.0703 35.7422C47.6088 35.7422 48.0469 35.3041 48.0469 34.7656V24.0234H14.8438V34.7656C14.8438 35.3041 15.2818 35.7422 15.8203 35.7422H47.0703ZM1.95312 47.0703C1.95312 47.6088 2.39121 48.0469 2.92969 48.0469H24.4141C24.9525 48.0469 25.3906 47.6088 25.3906 47.0703V42.1875H1.95312V47.0703ZM1.95312 40.2344H25.3906V37.6953H15.8203C14.2049 37.6953 12.8906 36.3811 12.8906 34.7656V13.2812C12.8906 11.6658 14.2049 10.3516 15.8203 10.3516H25.3906V7.8125H1.95312V40.2344ZM1.95312 5.85938H25.3906V2.92969C25.3906 2.39121 24.9525 1.95312 24.4141 1.95312H2.92969C2.39121 1.95312 1.95312 2.39121 1.95312 2.92969V5.85938Z" fill="#B5C8D7" />
        <path d="M12.6953 44.1406H14.6484C15.1877 44.1406 15.625 44.5779 15.625 45.1172C15.625 45.6564 15.1877 46.0938 14.6484 46.0938H12.6953C12.1561 46.0938 11.7188 45.6564 11.7188 45.1172C11.7188 44.5779 12.1561 44.1406 12.6953 44.1406Z" fill="#B5C8D7" />
        <path d="M17.7734 27.9297H21.6797C22.2189 27.9297 22.6562 28.367 22.6562 28.9062C22.6562 29.4455 22.2189 29.8828 21.6797 29.8828H17.7734C17.2342 29.8828 16.7969 29.4455 16.7969 28.9062C16.7969 28.367 17.2342 27.9297 17.7734 27.9297Z" fill="#B5C8D7" />
        <path d="M25.5859 27.9297H29.4922C30.0314 27.9297 30.4688 28.367 30.4688 28.9062C30.4688 29.4455 30.0314 29.8828 29.4922 29.8828H25.5859C25.0467 29.8828 24.6094 29.4455 24.6094 28.9062C24.6094 28.367 25.0467 27.9297 25.5859 27.9297Z" fill="#B5C8D7" />
        <path d="M33.3984 27.9297H37.3047C37.8439 27.9297 38.2812 28.367 38.2812 28.9062C38.2812 29.4455 37.8439 29.8828 37.3047 29.8828H33.3984C32.8592 29.8828 32.4219 29.4455 32.4219 28.9062C32.4219 28.367 32.8592 27.9297 33.3984 27.9297Z" fill="#B5C8D7" />
        <path d="M41.2109 27.9297H45.1172C45.6564 27.9297 46.0938 28.367 46.0938 28.9062C46.0938 29.4455 45.6564 29.8828 45.1172 29.8828H41.2109C40.6717 29.8828 40.2344 29.4455 40.2344 28.9062C40.2344 28.367 40.6717 27.9297 41.2109 27.9297Z" fill="#B5C8D7" />
        <path d="M17.7734 31.8359H25.5859C26.1252 31.8359 26.5625 32.2732 26.5625 32.8125C26.5625 33.3518 26.1252 33.7891 25.5859 33.7891H17.7734C17.2342 33.7891 16.7969 33.3518 16.7969 32.8125C16.7969 32.2732 17.2342 31.8359 17.7734 31.8359Z" fill="#B5C8D7" />
    </symbol>
    <symbol id="electricity" viewBox="0 0 25 25">
        <path d="M3.76119 16.2609H10.0479L9.21531 24.1302C9.1974 24.2993 9.23397 24.4697 9.31945 24.6156C9.40493 24.7616 9.53466 24.8749 9.68891 24.9386C9.84423 25.0056 10.0169 25.0182 10.1799 24.9744C10.3429 24.9306 10.4872 24.8329 10.5903 24.6965L21.8385 10.0006C21.9263 9.88538 21.9808 9.74732 21.9958 9.60204C22.0108 9.45677 21.9856 9.31012 21.9231 9.17875C21.8607 9.04737 21.7635 8.93653 21.6425 8.85882C21.5215 8.78111 21.3817 8.73965 21.2388 8.73913H14.9521L15.7847 0.869819C15.8026 0.70072 15.766 0.530266 15.6806 0.384356C15.5951 0.238445 15.4653 0.125053 15.3111 0.0614083C15.1558 -0.00558387 14.9831 -0.0181617 14.8201 0.0256347C14.6571 0.069431 14.5128 0.167142 14.4097 0.303541L3.16154 14.9994C3.07369 15.1146 3.01917 15.2527 3.00421 15.398C2.98924 15.5432 3.01441 15.6899 3.07686 15.8213C3.13931 15.9526 3.23654 16.0635 3.35751 16.1412C3.47848 16.2189 3.61833 16.2604 3.76119 16.2609ZM13.9781 3.41612L13.3403 9.43429C13.3284 9.54384 13.3394 9.65472 13.3724 9.75963C13.4054 9.86455 13.4598 9.96113 13.532 10.043C13.6041 10.1249 13.6924 10.1903 13.791 10.2348C13.8896 10.2793 13.9964 10.3019 14.1042 10.3013H19.669L11.0219 21.5839L11.6597 15.5657C11.6716 15.4562 11.6606 15.3453 11.6276 15.2404C11.5946 15.1354 11.5402 15.0389 11.468 14.957C11.3959 14.8751 11.3076 14.8097 11.209 14.7652C11.1104 14.7207 11.0036 14.6981 10.8958 14.6987H5.33097L13.9781 3.41612Z" fill="#B5C8D7" />
    </symbol>
    <symbol id="hot" viewBox="0 0 19 25">
        <path d="M9.90904 0.140416C9.6672 -0.0468053 9.3328 -0.0468053 9.09096 0.140416C8.71991 0.427359 0 7.26065 0 15.2778C0 20.6386 4.2617 25 9.5 25C14.7383 25 19 20.6386 19 15.2778C19 7.26065 10.2801 0.427359 9.90904 0.140416ZM9.5 23.6111C5.01003 23.6111 1.35714 19.8728 1.35714 15.2778C1.35714 8.89259 7.79543 3.02568 9.5 1.58457C11.2046 3.02568 17.6429 8.89259 17.6429 15.2778C17.6429 19.8728 13.99 23.6111 9.5 23.6111Z" fill="#B5C8D7" />
        <path d="M8.57509 5.96186C8.36554 5.87048 8.12506 5.8927 7.93506 6.02131C7.74506 6.14992 7.63052 6.3677 7.63052 6.60075C7.63052 8.12741 6.52445 9.44629 5.35323 10.8427C4.12665 12.3052 2.85853 13.8174 2.72906 15.7524C2.57733 18.0207 3.64893 20.186 5.52504 21.404C5.76689 21.5607 6.07822 21.5459 6.30377 21.3665C6.52987 21.1873 6.62189 20.8826 6.53422 20.6043C6.32386 19.9368 6.28016 19.2457 6.3909 18.5846C6.53313 19.0087 6.73969 19.4123 7.00759 19.7779C7.81373 20.8782 9.09894 21.5265 10.4395 21.5265C10.5704 21.5265 10.7023 21.5204 10.8336 21.5076C12.9103 21.2784 14.7077 19.9998 15.6415 18.0882C16.5754 16.1763 16.4962 13.9377 15.4297 12.0999C15.2769 11.8371 14.9754 11.7074 14.6849 11.7802C14.3951 11.8529 14.1852 12.111 14.169 12.4163C14.1296 13.1379 13.8489 13.8015 13.3957 14.3124C13.758 10.8049 11.8759 7.40241 8.57509 5.96186ZM14.882 14.5915C15.0207 15.5588 14.8706 16.5601 14.4274 17.4671C13.701 18.9543 12.3032 19.9485 10.6977 20.126C9.695 20.2204 8.69723 19.769 8.09303 18.9448C7.48883 18.1207 7.34362 17.0135 7.71412 16.0554C7.83246 15.7499 7.72497 15.4015 7.45707 15.2204C7.3428 15.1432 7.21306 15.1054 7.08359 15.1054C6.90933 15.1054 6.7367 15.1738 6.6056 15.3065C5.60919 16.3168 5.04679 17.6399 4.98056 19.016C4.33564 18.1165 4.00613 16.9987 4.08295 15.8474C4.18147 14.3721 5.2509 13.0971 6.38303 11.7474C7.43129 10.4974 8.50886 9.21268 8.86524 7.66797C11.4924 9.27518 12.7236 12.521 11.7497 15.5851C11.6699 15.8365 11.7364 16.1124 11.9213 16.2971C12.1066 16.4818 12.3781 16.5432 12.621 16.4549C13.5835 16.1068 14.3704 15.4404 14.882 14.5915Z" fill="#B5C8D7" />
    </symbol>
    <symbol id="cold" viewBox="0 0 19 25">
        <path d="M9.5 25C14.7383 25 19 20.6386 19 15.2778C19 7.26065 10.2801 0.427359 9.90904 0.140416C9.6672 -0.0468053 9.3328 -0.0468053 9.09096 0.140416C8.71991 0.427359 0 7.26065 0 15.2778C0 20.6386 4.2617 25 9.5 25ZM9.5 1.58457C11.2046 3.02568 17.6429 8.89259 17.6429 15.2778C17.6429 19.8728 13.99 23.6111 9.5 23.6111C5.01003 23.6111 1.35714 19.8728 1.35714 15.2778C1.35714 8.89259 7.79543 3.02568 9.5 1.58457Z" fill="#B5C8D7" />
        <path d="M4.55107 19.0048L5.29615 18.5645V19.445C5.29615 19.8286 5.59987 20.1395 5.97472 20.1395C6.34956 20.1395 6.65329 19.8286 6.65329 19.445V17.7625L8.822 16.4812V19.0442L7.39836 19.8853C7.074 20.077 6.96272 20.5017 7.15 20.8339C7.27567 21.0567 7.50395 21.1811 7.73819 21.1811C7.85355 21.1811 7.96999 21.1511 8.07693 21.0881L8.822 20.6478V21.5284C8.822 21.912 9.12573 22.2228 9.50057 22.2228C9.87542 22.2228 10.1791 21.912 10.1791 21.5284V20.6478L10.9242 21.0881C11.0312 21.1514 11.1476 21.1811 11.263 21.1811C11.4972 21.1811 11.7255 21.0567 11.8511 20.8339C12.0384 20.5017 11.9271 20.077 11.6028 19.8853L10.1791 19.0442V16.4812L12.3479 17.7625V19.445C12.3479 19.8286 12.6516 20.1395 13.0264 20.1395C13.4013 20.1395 13.705 19.8286 13.705 19.445V18.5645L14.4501 19.0048C14.557 19.0681 14.6735 19.0978 14.7888 19.0978C15.0231 19.0978 15.2513 18.9731 15.377 18.7506C15.5643 18.4184 15.453 17.9937 15.1286 17.802L14.3836 17.3617L15.1286 16.9214C15.453 16.7298 15.5643 16.3051 15.377 15.9728C15.1897 15.6403 14.7739 15.527 14.4501 15.7187L13.0264 16.5598L10.8577 15.2784L13.0264 13.997L14.4501 14.8381C14.557 14.9014 14.6735 14.9312 14.7888 14.9312C15.0231 14.9312 15.2513 14.8067 15.377 14.5839C15.5643 14.2517 15.453 13.827 15.1286 13.6353L14.3836 13.1951L15.1286 12.7548C15.453 12.5631 15.5643 12.1384 15.377 11.8062C15.1897 11.4737 14.7739 11.3604 14.4501 11.552L13.705 11.9923V11.1117C13.705 10.7281 13.4013 10.4173 13.0264 10.4173C12.6516 10.4173 12.3479 10.7281 12.3479 11.1117V12.7942L10.1791 14.0756V11.5126L11.6028 10.6715C11.9271 10.4798 12.0384 10.0551 11.8511 9.72287C11.6639 9.39009 11.2478 9.27703 10.9242 9.4687L10.1791 9.90898V9.02842C10.1791 8.64482 9.87542 8.33398 9.50057 8.33398C9.12573 8.33398 8.822 8.64482 8.822 9.02842V9.90898L8.07693 9.4687C7.75312 9.27703 7.33729 9.39009 7.15 9.72287C6.96272 10.0551 7.074 10.4798 7.39836 10.6715L8.822 11.5126V14.0756L6.65329 12.7942V11.1117C6.65329 10.7281 6.34956 10.4173 5.97472 10.4173C5.59987 10.4173 5.29615 10.7281 5.29615 11.1117V11.9923L4.55107 11.552C4.22726 11.3604 3.81143 11.474 3.62415 11.8062C3.43686 12.1384 3.54815 12.5631 3.8725 12.7548L4.61757 13.1951L3.8725 13.6353C3.54815 13.827 3.43686 14.2517 3.62415 14.5839C3.74982 14.8067 3.97809 14.9312 4.21233 14.9312C4.32769 14.9312 4.44413 14.9012 4.55107 14.8381L5.97472 13.997L8.14343 15.2784L5.97472 16.5598L4.55107 15.7187C4.22726 15.527 3.81143 15.6403 3.62415 15.9728C3.43686 16.3051 3.54815 16.7298 3.8725 16.9214L4.61757 17.3617L3.8725 17.802C3.54815 17.9937 3.43686 18.4184 3.62415 18.7506C3.74982 18.9734 3.97809 19.0978 4.21233 19.0978C4.32742 19.0978 4.44413 19.0681 4.55107 19.0048Z" fill="#B5C8D7" />
    </symbol>
    <symbol id="view-close" viewBox="0 0 25 25">
        <g clip-path="url(#clip0_325:668)">
            <path d="M24.8756 12.092C24.8198 12.009 23.4853 10.036 21.3172 8.03905C20.0335 6.85683 18.7222 5.91235 17.4197 5.23193C15.7569 4.36328 14.1018 3.92285 12.5 3.92285C10.8983 3.92285 9.24317 4.36328 7.58043 5.23193C6.27789 5.9124 4.96662 6.85683 3.68293 8.03905C1.51472 10.036 0.180249 12.009 0.124438 12.092C-0.0414794 12.339 -0.0414794 12.6617 0.124438 12.9087C0.1802 12.9917 1.51472 14.9647 3.68288 16.9616C4.96657 18.1439 6.27789 19.0884 7.58038 19.7688C9.24312 20.6374 10.8983 21.0778 12.5 21.0778C14.1017 21.0778 15.7569 20.6374 17.4196 19.7688C18.7222 19.0883 20.0334 18.1439 21.3171 16.9616C23.4853 14.9647 24.8198 12.9917 24.8756 12.9087C25.0415 12.6617 25.0415 12.339 24.8756 12.092ZM20.3018 15.9053C18.46 17.5968 15.6115 19.613 12.5001 19.613C9.38873 19.613 6.54015 17.5968 4.6984 15.9053C3.21584 14.5438 2.12673 13.1651 1.63352 12.5003C2.12683 11.8355 3.21584 10.4568 4.69836 9.09535C6.5401 7.40395 9.38868 5.38769 12.5 5.38769C15.6114 5.38769 18.46 7.40395 20.3017 9.09535C21.7842 10.4569 22.8734 11.8356 23.3666 12.5003C22.8733 13.1651 21.7842 14.5438 20.3018 15.9053Z" fill="#B5C8D7" />
            <path d="M12.4993 8.62988C10.3652 8.62988 8.62891 10.3662 8.62891 12.5003C8.62891 14.6345 10.3652 16.3708 12.4993 16.3708C14.6335 16.3708 16.3698 14.6345 16.3698 12.5003C16.3698 10.3662 14.6335 8.62988 12.4993 8.62988ZM12.4993 14.9059C11.1729 14.9059 10.0937 13.8267 10.0937 12.5003C10.0937 11.1738 11.1729 10.0947 12.4993 10.0947C13.8258 10.0947 14.905 11.1738 14.905 12.5003C14.905 13.8267 13.8258 14.9059 12.4993 14.9059Z" fill="#B5C8D7" />
            <line x1="2.27355" y1="2.21289" x2="23.2129" y2="23.1522" stroke="#B5C8D7" stroke-width="1.5" stroke-linecap="round" />
        </g>
        <defs>
            <clipPath id="clip0_325:668">
                <rect width="25" height="25" fill="white" />
            </clipPath>
        </defs>
    </symbol>
    <symbol id="view-open" viewBox="0 0 25 25">
        <g clip-path="url(#clip0_198:417)">
            <path d="M24.8756 12.092C24.8198 12.009 23.4853 10.036 21.3172 8.03905C20.0335 6.85683 18.7222 5.91235 17.4197 5.23193C15.7569 4.36328 14.1018 3.92285 12.5 3.92285C10.8983 3.92285 9.24317 4.36328 7.58043 5.23193C6.27789 5.9124 4.96662 6.85683 3.68293 8.03905C1.51472 10.036 0.180249 12.009 0.124438 12.092C-0.0414794 12.339 -0.0414794 12.6617 0.124438 12.9087C0.1802 12.9917 1.51472 14.9647 3.68288 16.9616C4.96657 18.1439 6.27789 19.0884 7.58038 19.7688C9.24312 20.6374 10.8983 21.0778 12.5 21.0778C14.1017 21.0778 15.7569 20.6374 17.4196 19.7688C18.7222 19.0883 20.0334 18.1439 21.3171 16.9616C23.4853 14.9647 24.8198 12.9917 24.8756 12.9087C25.0415 12.6617 25.0415 12.339 24.8756 12.092ZM20.3018 15.9053C18.46 17.5968 15.6115 19.613 12.5001 19.613C9.38873 19.613 6.54015 17.5968 4.6984 15.9053C3.21584 14.5438 2.12673 13.1651 1.63352 12.5003C2.12683 11.8355 3.21584 10.4568 4.69836 9.09535C6.5401 7.40395 9.38868 5.38769 12.5 5.38769C15.6114 5.38769 18.46 7.40395 20.3017 9.09535C21.7842 10.4569 22.8734 11.8356 23.3666 12.5003C22.8733 13.1651 21.7842 14.5438 20.3018 15.9053Z" fill="#B5C8D7" />
            <path d="M12.4993 8.62988C10.3652 8.62988 8.62891 10.3662 8.62891 12.5003C8.62891 14.6345 10.3652 16.3708 12.4993 16.3708C14.6335 16.3708 16.3698 14.6345 16.3698 12.5003C16.3698 10.3662 14.6335 8.62988 12.4993 8.62988ZM12.4993 14.9059C11.1729 14.9059 10.0937 13.8267 10.0937 12.5003C10.0937 11.1738 11.1729 10.0947 12.4993 10.0947C13.8258 10.0947 14.905 11.1738 14.905 12.5003C14.905 13.8267 13.8258 14.9059 12.4993 14.9059Z" fill="#B5C8D7" />
        </g>
        <defs>
            <clipPath id="clip0_198:417">
                <rect width="25" height="25" fill="white" />
            </clipPath>
        </defs>
    </symbol>
    <symbol id="help" viewBox="0 0 24 24">
        <path d="M12 22C17.5228 22 22 17.5228 22 12C22 6.47715 17.5228 2 12 2C6.47715 2 2 6.47715 2 12C2 17.5228 6.47715 22 12 22Z" stroke="#B5C8D7" stroke-width="2" stroke-linecap="round" stroke-linejoin="round"/>
        <path d="M9.08984 8.99959C9.32495 8.33126 9.789 7.7677 10.3998 7.40873C11.0106 7.04975 11.7287 6.91853 12.427 7.0383C13.1253 7.15808 13.7587 7.52112 14.2149 8.06312C14.6712 8.60512 14.9209 9.29112 14.9198 9.99959C14.9198 11.9996 11.9198 12.9996 11.9198 12.9996" stroke="#B5C8D7" stroke-width="2" stroke-linecap="round" stroke-linejoin="round"/>
        <path d="M12 17H12.01" stroke="#B5C8D7" stroke-width="2" stroke-linecap="round" stroke-linejoin="round"/>
    </symbol>
    <symbol id="logo-mobile" viewBox="0 0 25 39">
        <path d="M12.366 0.639648C8.86951 9.20758 3.10764 13.9077 1.03927 21.3985C-2.01402 36.7229 15.2223 44.0668 22.7078 33.1488C26.0566 26.2455 24.7762 19.5381 20.2947 12.9285C19.2113 21.1537 11.0364 24.2382 13.2525 31.4842C14.1882 27.9101 16.1088 24.9726 19.1621 23.4548C20.147 23.0632 20.7872 23.4548 20.8857 25.0705C21.6244 33.0999 9.65746 40.2969 4.63429 28.1549C1.97497 18.7547 16.3058 8.37527 12.366 0.639648Z" fill="#064778"/>
        <path d="M10.347 31.631C-0.142537 21.1047 15.8626 15.2785 14.4345 4.31152C25.7612 16.3066 7.5892 20.7619 10.347 31.631Z" fill="#00A0E3"/>
    </symbol>
</svg>